<svg width="30" height="27" viewBox="0 0 30 27" fill="none" xmlns="http://www.w3.org/2000/svg">
<path d="M30 13.499C30.0003 17.0484 28.5671 20.4553 26.0106 22.982C23.454 25.5088 19.9798 26.9523 16.3399 27H16.1538C12.6177 27.0086 9.21387 25.689 6.64904 23.3153C6.5389 23.2137 6.45036 23.092 6.38847 22.9571C6.32657 22.8221 6.29255 22.6766 6.28833 22.5288C6.28411 22.3811 6.30978 22.234 6.36388 22.0959C6.41797 21.9578 6.49943 21.8314 6.60361 21.724C6.70778 21.6166 6.83263 21.5303 6.97102 21.47C7.10941 21.4096 7.25864 21.3764 7.41018 21.3723C7.56172 21.3682 7.71261 21.3932 7.85424 21.446C7.99586 21.4987 8.12544 21.5782 8.23558 21.6797C9.88528 23.1967 11.9569 24.2062 14.1915 24.5819C16.4261 24.9576 18.7248 24.6829 20.8002 23.7922C22.8757 22.9015 24.636 21.4342 25.8613 19.5737C27.0865 17.7131 27.7223 15.5418 27.6893 13.331C27.6563 11.1201 26.956 8.96777 25.6758 7.14278C24.3955 5.31779 22.5922 3.90107 20.491 3.06962C18.3898 2.23816 16.084 2.02883 13.8615 2.46776C11.639 2.9067 9.59846 3.97445 7.99471 5.53762C7.98293 5.55005 7.97041 5.56179 7.95721 5.57278L4.12356 8.99865H8.07692C8.38294 8.99865 8.67643 9.11719 8.89282 9.32818C9.1092 9.53918 9.23077 9.82535 9.23077 10.1237C9.23077 10.4221 9.1092 10.7083 8.89282 10.9193C8.67643 11.1303 8.38294 11.2488 8.07692 11.2488H1.15385C0.847827 11.2488 0.554342 11.1303 0.337954 10.9193C0.121566 10.7083 0 10.4221 0 10.1237V3.37325C0 3.07486 0.121566 2.78869 0.337954 2.57769C0.554342 2.3667 0.847827 2.24817 1.15385 2.24817C1.45987 2.24817 1.75335 2.3667 1.96974 2.57769C2.18613 2.78869 2.30769 3.07486 2.30769 3.37325V7.56418L6.38221 3.93579C8.32065 2.05302 10.7877 0.772435 13.4719 0.25569C16.1561 -0.261055 18.9372 0.00920601 21.464 1.03236C23.9909 2.05551 26.1502 3.78568 27.6694 6.00446C29.1886 8.22323 29.9996 10.8311 30 13.499Z" fill="#B9B9B9"/>
</svg>
