<svg width="43" height="33" viewBox="0 0 43 33" fill="none" xmlns="http://www.w3.org/2000/svg">
<path d="M43 10.0463C43.0007 9.25985 42.8168 8.48426 42.4632 7.782C42.1096 7.07973 41.5961 6.47042 40.9641 6.00316C40.3321 5.5359 39.5993 5.22375 38.8248 5.09187C38.0502 4.95998 37.2555 5.01205 36.5047 5.24387C35.7539 5.4757 35.068 5.88079 34.5023 6.42653C33.9366 6.97226 33.5068 7.64337 33.2477 8.38578C32.9885 9.1282 32.9073 9.92116 33.0104 10.7008C33.1135 11.4804 33.3981 12.2249 33.8413 12.8742L29.0416 18.792L24.7256 8.86272C25.5127 8.19961 26.0771 7.31027 26.3423 6.31527C26.6075 5.32027 26.5606 4.26771 26.208 3.30029C25.8554 2.33286 25.2141 1.49734 24.3711 0.906988C23.5281 0.316636 22.5241 0 21.4953 0C20.4664 0 19.4625 0.316636 18.6195 0.906988C17.7765 1.49734 17.1352 2.33286 16.7826 3.30029C16.43 4.26771 16.3831 5.32027 16.6483 6.31527C16.9134 7.31027 17.4778 8.19961 18.265 8.86272L13.9598 18.7866L9.16003 12.8689C9.7766 11.9646 10.081 10.8834 10.0269 9.78999C9.97277 8.69655 9.5631 7.65078 8.86027 6.81194C8.15743 5.9731 7.19995 5.38717 6.13365 5.14337C5.06734 4.89958 3.95064 5.01128 2.95363 5.46148C1.95662 5.91167 1.13393 6.67568 0.610851 7.63715C0.0877741 8.59862 -0.107022 9.70486 0.0561291 10.7874C0.21928 11.8699 0.731439 12.8694 1.5146 13.6337C2.29777 14.3979 3.30902 14.885 4.39434 15.0208L6.9886 30.6024C7.10013 31.2723 7.44544 31.8809 7.96311 32.3199C8.48079 32.7589 9.13726 32.9999 9.81576 33H33.1856C33.8641 32.9999 34.5205 32.7589 35.0382 32.3199C35.5559 31.8809 35.9012 31.2723 36.0127 30.6024L38.6052 15.0279C39.8184 14.8763 40.9346 14.2863 41.7438 13.369C42.5531 12.4517 42.9998 11.2701 43 10.0463ZM21.5007 2.87323C21.9259 2.87323 22.3415 2.99944 22.6951 3.2359C23.0487 3.47235 23.3242 3.80843 23.4869 4.20164C23.6497 4.59485 23.6922 5.02753 23.6093 5.44496C23.5263 5.86239 23.3216 6.24583 23.0209 6.54678C22.7202 6.84773 22.3371 7.05268 21.9201 7.13571C21.503 7.21874 21.0708 7.17613 20.6779 7.01325C20.2851 6.85038 19.9493 6.57456 19.7131 6.22068C19.4768 5.8668 19.3507 5.45075 19.3507 5.02514C19.3507 4.45442 19.5772 3.90707 19.9804 3.50351C20.3836 3.09995 20.9305 2.87323 21.5007 2.87323ZM2.86789 10.0463C2.86789 9.62066 2.99398 9.20462 3.23022 8.85074C3.46646 8.49685 3.80223 8.22104 4.19508 8.05817C4.58793 7.89529 5.02021 7.85268 5.43726 7.93571C5.8543 8.01874 6.23739 8.22369 6.53806 8.52464C6.83873 8.82559 7.04349 9.20902 7.12645 9.62645C7.20941 10.0439 7.16683 10.4766 7.00411 10.8698C6.84138 11.263 6.56582 11.5991 6.21227 11.8355C5.85871 12.072 5.44304 12.1982 5.01783 12.1982C4.44763 12.1982 3.90078 11.9715 3.49759 11.5679C3.0944 11.1643 2.86789 10.617 2.86789 10.0463ZM37.9835 12.1982C37.5583 12.1982 37.1426 12.072 36.789 11.8355C36.4355 11.5991 36.1599 11.263 35.9972 10.8698C35.8345 10.4766 35.7919 10.0439 35.8749 9.62645C35.9578 9.20902 36.1626 8.82559 36.4633 8.52464C36.7639 8.22369 37.147 8.01874 37.5641 7.93571C37.9811 7.85268 38.4134 7.89529 38.8062 8.05817C39.1991 8.22104 39.5349 8.49685 39.7711 8.85074C40.0073 9.20462 40.1334 9.62066 40.1334 10.0463C40.1334 10.617 39.9069 11.1643 39.5037 11.5679C39.1005 11.9715 38.5537 12.1982 37.9835 12.1982Z" fill="#99C7DF"/>
</svg>
